<?xml version="1.0" ?>
<!-- Uploaded to: SVG Repo, www.svgrepo.com, Generator: SVG Repo Mixer Tools -->
<svg width="800px" height="800px" viewBox="0 0 24 24" version="1.1" xml:space="preserve" xmlns="http://www.w3.org/2000/svg" xmlns:xlink="http://www.w3.org/1999/xlink">
<style type="text/css">
	.st0{opacity:0.2;fill:none;stroke:#000000;stroke-width:5.000000e-02;stroke-miterlimit:10;}
	.st1{fill:none;stroke:#000000;stroke-width:2;stroke-linecap:round;stroke-linejoin:round;stroke-miterlimit:10;}
</style>
<g id="Layer_1"/>
<g id="Layer_2">
<g>
<path d="M18,18c-0.7,0-1.4-0.2-2.1-0.6c-0.6-0.4-1.3-0.4-1.9,0c-1.2,0.8-2.9,0.8-4.1,0c-0.6-0.4-1.3-0.4-1.9,0    c-1.2,0.8-2.9,0.8-4.1,0l-1.5-1C2,16.1,1.9,15.5,2.2,15c0.3-0.5,0.9-0.6,1.4-0.3l1.5,1c0.6,0.4,1.3,0.4,1.9,0    c1.2-0.8,2.9-0.8,4.1,0c0.6,0.4,1.3,0.4,1.9,0c1.2-0.8,2.9-0.8,4.1,0c0.6,0.4,1.3,0.4,1.9,0l1.5-1c0.5-0.3,1.1-0.2,1.4,0.3    c0.3,0.5,0.2,1.1-0.3,1.4l-1.5,1C19.4,17.8,18.7,18,18,18z"/>
</g>
<g>
<path d="M12,21.5c-0.7,0-1.4-0.2-2.1-0.6c-0.6-0.4-1.3-0.4-1.9,0C7.6,21.1,7,21,6.7,20.6s-0.2-1.1,0.3-1.4c1.2-0.8,2.9-0.8,4.1,0    c0.6,0.4,1.3,0.4,1.9,0c1.2-0.8,2.9-0.8,4.1,0c0.5,0.3,0.6,0.9,0.3,1.4c-0.3,0.5-0.9,0.6-1.4,0.3c-0.6-0.4-1.3-0.4-1.9,0    C13.4,21.2,12.7,21.5,12,21.5z"/>
</g>
<g>
<path d="M12,14.5c-0.7,0-1.4-0.2-2.1-0.6c-0.6-0.4-1.3-0.4-1.9,0C7.6,14.1,7,14,6.7,13.6c-0.3-0.5-0.2-1.1,0.3-1.4    c1.2-0.8,2.9-0.8,4.1,0c0.6,0.4,1.3,0.4,1.9,0c1.2-0.8,2.9-0.8,4.1,0c0.5,0.3,0.6,0.9,0.3,1.4c-0.3,0.5-0.9,0.6-1.4,0.3    c-0.6-0.4-1.3-0.4-1.9,0C13.4,14.2,12.7,14.5,12,14.5z"/>
</g>
<g>
<path d="M14,8c-0.3,0-0.5-0.1-0.7-0.3L12,6.4l-1.3,1.3c-0.4,0.4-1,0.4-1.4,0s-0.4-1,0-1.4l2-2c0.4-0.4,1-0.4,1.4,0l2,2    c0.4,0.4,0.4,1,0,1.4C14.5,7.9,14.3,8,14,8z"/>
</g>
<g>
<path d="M12,11c-0.6,0-1-0.4-1-1V5c0-0.6,0.4-1,1-1s1,0.4,1,1v5C13,10.6,12.6,11,12,11z"/>
</g>
</g>
</svg>