<?xml version="1.0" ?>
<!-- Uploaded to: SVG Repo, www.svgrepo.com, Generator: SVG Repo Mixer Tools -->
<svg width="800px" height="800px" viewBox="0 0 24 24" version="1.1" xml:space="preserve" xmlns="http://www.w3.org/2000/svg" xmlns:xlink="http://www.w3.org/1999/xlink">
<style type="text/css">
	.st0{opacity:0.2;fill:none;stroke:#000000;stroke-width:5.000000e-02;stroke-miterlimit:10;}
	.st1{fill:none;stroke:#000000;stroke-width:2;stroke-linecap:round;stroke-linejoin:round;stroke-miterlimit:10;}
</style>
<g id="Layer_1"/>
<g id="Layer_2">
<g>
<path d="M3.9,16.4c1.2,0.8,2.9,0.8,4.1,0c0.6-0.4,1.3-0.4,1.9,0c1.2,0.8,2.9,0.8,4.1,0c0.6-0.4,1.3-0.4,1.9,0    c0.6,0.4,1.3,0.6,2.1,0.6s1.4-0.2,2.1-0.6l1.5-1c0.5-0.3,0.6-0.9,0.3-1.4c-0.3-0.5-0.9-0.6-1.4-0.3l-1.5,1c-0.6,0.4-1.3,0.4-1.9,0    c-0.3-0.2-0.6-0.3-0.9-0.4c1.1-1.1,1.8-2.6,1.8-4.3V9.9c0-0.4-0.2-0.8-0.6-0.9C17,8.9,16.6,9,16.3,9.3c-0.5,0.5-1.1,0.8-1.8,0.8    C13.1,10,12,8.9,12,7.5c0-0.7,0.3-1.3,0.8-1.8C13,5.4,13.1,5,13,4.6S12.4,4,12,4c-3.3,0-6,2.7-6,6c0,1.7,0.7,3.2,1.8,4.3    c-0.3,0.1-0.6,0.2-0.9,0.4c-0.6,0.4-1.3,0.4-1.9,0l-1.5-1c-0.5-0.3-1.1-0.2-1.4,0.3c-0.3,0.5-0.2,1.1,0.3,1.4L3.9,16.4z M10.1,6.5    C10,6.8,10,7.2,10,7.5c0,2.5,2,4.5,4.5,4.5c0.4,0,0.7,0,1-0.1c-0.7,1.3-2,2.1-3.5,2.1c-2.2,0-4-1.8-4-4C8,8.5,8.8,7.2,10.1,6.5z"/>
<path d="M20.4,16.7l-1.5,1c-0.6,0.4-1.3,0.4-1.9,0c-1.2-0.8-2.9-0.8-4.1,0c-0.6,0.4-1.3,0.4-1.9,0c-1.2-0.8-2.9-0.8-4.1,0    c-0.6,0.4-1.3,0.4-1.9,0l-1.5-1c-0.5-0.3-1.1-0.2-1.4,0.3c-0.3,0.5-0.2,1.1,0.3,1.4l1.5,1c1.2,0.8,2.9,0.8,4.1,0    c0.6-0.4,1.3-0.4,1.9,0c1.2,0.8,2.9,0.8,4.1,0c0.6-0.4,1.3-0.4,1.9,0c0.6,0.4,1.3,0.6,2.1,0.6s1.4-0.2,2.1-0.6l1.5-1    c0.5-0.3,0.6-0.9,0.3-1.4C21.5,16.5,20.9,16.4,20.4,16.7z"/>
</g>
</g>
</svg>