<?xml version="1.0" encoding="UTF-8" standalone="no"?>
<!-- Uploaded to: SVG Repo, www.svgrepo.com, Generator: SVG Repo Mixer Tools -->

<svg
   width="668.10608"
   height="330.00003"
   viewBox="0 0 20.043182 9.9000009"
   version="1.1"
   xml:space="preserve"
   id="svg5"
   xmlns="http://www.w3.org/2000/svg"
   xmlns:svg="http://www.w3.org/2000/svg"><defs
   id="defs5" />

<style
   type="text/css"
   id="style1">
	.st0{opacity:0.2;fill:none;stroke:#000000;stroke-width:5.000000e-02;stroke-miterlimit:10;}
	.st1{fill:none;stroke:#000000;stroke-width:2;stroke-linecap:round;stroke-linejoin:round;stroke-miterlimit:10;}
</style>



<g
   id="g1"
   transform="translate(-2.0255668,-11.6)">

<path
   d="M 18,18 C 17.3,18 16.6,17.8 15.9,17.4 15.3,17 14.6,17 14,17.4 12.8,18.2 11.1,18.2 9.9,17.4 9.3,17 8.6,17 8,17.4 c -1.2,0.8 -2.9,0.8 -4.1,0 l -1.5,-1 C 2,16.1 1.9,15.5 2.2,15 2.5,14.5 3.1,14.4 3.6,14.7 l 1.5,1 c 0.6,0.4 1.3,0.4 1.9,0 1.2,-0.8 2.9,-0.8 4.1,0 0.6,0.4 1.3,0.4 1.9,0 1.2,-0.8 2.9,-0.8 4.1,0 0.6,0.4 1.3,0.4 1.9,0 l 1.5,-1 c 0.5,-0.3 1.1,-0.2 1.4,0.3 0.3,0.5 0.2,1.1 -0.3,1.4 l -1.5,1 C 19.4,17.8 18.7,18 18,18 Z"
   id="path1" />

</g><g
   id="g2"
   transform="translate(-2.0255668,-11.6)">

<path
   d="M 12,21.5 C 11.3,21.5 10.6,21.3 9.9,20.9 9.3,20.5 8.6,20.5 8,20.9 7.6,21.1 7,21 6.7,20.6 6.4,20.1 6.5,19.5 7,19.2 c 1.2,-0.8 2.9,-0.8 4.1,0 0.6,0.4 1.3,0.4 1.9,0 1.2,-0.8 2.9,-0.8 4.1,0 0.5,0.3 0.6,0.9 0.3,1.4 -0.3,0.5 -0.9,0.6 -1.4,0.3 -0.6,-0.4 -1.3,-0.4 -1.9,0 -0.7,0.3 -1.4,0.6 -2.1,0.6 z"
   id="path2" />

</g><g
   id="g3"
   transform="translate(-2.0255668,-11.6)">

<path
   d="M 12,14.5 C 11.3,14.5 10.6,14.3 9.9,13.9 9.3,13.5 8.6,13.5 8,13.9 7.6,14.1 7,14 6.7,13.6 6.4,13.1 6.5,12.5 7,12.2 c 1.2,-0.8 2.9,-0.8 4.1,0 0.6,0.4 1.3,0.4 1.9,0 1.2,-0.8 2.9,-0.8 4.1,0 0.5,0.3 0.6,0.9 0.3,1.4 -0.3,0.5 -0.9,0.6 -1.4,0.3 -0.6,-0.4 -1.3,-0.4 -1.9,0 -0.7,0.3 -1.4,0.6 -2.1,0.6 z"
   id="path3" />

</g>

</svg>
