<?xml version="1.0" encoding="UTF-8" standalone="no"?>
<!-- Created with Inkscape (http://www.inkscape.org/) -->

<svg
   width="167.18913mm"
   height="95.813217mm"
   viewBox="0 0 167.18913 95.813217"
   version="1.1"
   id="svg1"
   xml:space="preserve"
   xmlns:inkscape="http://www.inkscape.org/namespaces/inkscape"
   xmlns:sodipodi="http://sodipodi.sourceforge.net/DTD/sodipodi-0.dtd"
   xmlns="http://www.w3.org/2000/svg"
   xmlns:svg="http://www.w3.org/2000/svg"><sodipodi:namedview
     id="namedview1"
     pagecolor="#ffffff"
     bordercolor="#000000"
     borderopacity="0.25"
     inkscape:showpageshadow="2"
     inkscape:pageopacity="0.0"
     inkscape:pagecheckerboard="0"
     inkscape:deskcolor="#d1d1d1"
     inkscape:document-units="mm"><inkscape:page
       x="0"
       y="0"
       width="167.18913"
       height="95.813217"
       id="page2"
       margin="0"
       bleed="0" /></sodipodi:namedview><defs
     id="defs1" /><g
     inkscape:label="Layer 1"
     inkscape:groupmode="layer"
     id="layer1"
     transform="translate(-14.932577,-62.446586)"><path
       style="fill:#000000;stroke-width:0.684655"
       d="m 33.239571,158.16188 c -0.197672,-0.0772 -0.574214,-0.1461 -0.83676,-0.15311 -0.527829,-0.0141 -2.119903,-0.45546 -2.96446,-0.82185 -0.298894,-0.12967 -0.869511,-0.32472 -1.268037,-0.43344 -1.017092,-0.27748 -3.28829,-1.66066 -4.256982,-2.59253 -0.841658,-0.80967 -2.556451,-2.97585 -2.986898,-3.77314 -0.925569,-1.71436 -1.844637,-5.81699 -1.642125,-7.33027 0.06712,-0.50158 0.161158,-1.31955 0.208965,-1.8177 0.311609,-3.24702 1.938911,-7.06447 4.050448,-9.50184 1.231412,-1.42144 4.316757,-3.71563 6.834625,-5.08207 l 2.026884,-1.09999 0.962061,0.29623 c 0.529134,0.16292 1.446609,0.45152 2.038836,0.64131 1.509035,0.4836 2.934389,0.44788 4.301926,-0.1078 0.612987,-0.24908 1.214021,-0.45286 1.335631,-0.45286 0.502065,0 0.362115,0.63719 -0.675311,3.07469 -0.99237,2.33165 -1.298455,3.4201 -1.69513,6.028 -0.09304,0.61169 -0.157618,0.6793 -0.648749,0.6793 -0.479844,0 -0.588314,-0.10345 -0.902168,-0.86045 -1.142594,-2.75589 -1.232676,-2.81675 -5.569977,-3.76363 -1.128825,-0.24643 -2.274121,-0.44807 -2.545101,-0.44807 -0.531527,0 -2.014398,0.86562 -2.014398,1.17589 0,0.10406 -0.191437,0.47305 -0.425416,0.81999 -1.836718,2.72337 -2.151122,10.74787 -0.520557,13.28609 0.77034,1.19915 2.564503,3.16963 3.425224,3.76182 0.43605,0.30001 1.381249,0.79826 2.100442,1.10723 1.15931,0.49806 1.513083,0.5634 3.119104,0.57611 2.180375,0.0173 3.716503,-0.40413 5.583881,-1.53178 1.319181,-0.79661 1.752621,-0.82072 1.752621,-0.0975 0,0.43154 -0.15383,0.61246 -2.140141,2.51712 -0.980823,0.94051 -3.738388,4.13858 -4.286846,4.97166 -0.472459,0.71763 -0.640617,0.81705 -1.727574,1.02136 -0.151038,0.0284 -0.436346,-0.0116 -0.634018,-0.0888 z m 34.92185,-0.49372 c 0.885739,0 -3.302936,-2.54682 -3.330052,-2.81289 -0.0118,-0.11576 -0.01377,-0.2657 -0.0044,-0.3332 0.117408,-0.84387 0.446586,-11.832 0.477698,-15.94579 0.03353,-4.43358 -0.01253,-5.63999 -0.261672,-6.85328 -0.298487,-1.45362 -0.313418,-1.47939 -1.164433,-2.00907 -0.474137,-0.29511 -0.831375,-0.62864 -0.793862,-0.74118 0.09271,-0.27813 1.754135,-1.27152 4.67507,-2.79527 2.840524,-1.48181 3.289767,-1.63027 3.697978,-1.22206 0.319597,0.31959 0.294915,0.46999 -0.353685,2.15486 -0.549381,1.42713 -0.611144,2.17305 -0.764972,9.23856 -0.203041,9.32633 -0.152787,14.04713 0.162318,15.24671 0.217488,0.82796 1.101835,1.50949 1.958694,1.50949 1.801826,0 1.716183,0.71498 -0.270808,2.26082 -0.498155,0.38756 -1.368405,1.13789 -1.933896,1.66742 -0.565483,0.52952 -1.136099,0.95934 -1.268034,0.95517 -0.131936,-0.004 -1.191324,-0.32029 -0.825968,-0.32029 z M 56.340177,157.2022 c 0.988062,0 -1.812803,-1.97128 -1.812803,-2.37194 0,-0.11709 -0.203899,-0.40444 -0.453116,-0.63856 l -0.453116,-0.42568 -1.245472,0.851 c -0.685006,0.46804 -1.797468,1.33828 -2.472128,1.93386 -1.366502,1.20632 -1.786738,1.31134 -2.803243,0.70054 -1.689977,-1.01547 -2.535157,-1.83571 -3.12399,-3.03179 -0.546409,-1.10992 -0.589548,-1.33038 -0.589548,-3.01284 0,-1.47222 0.07317,-1.97354 0.387173,-2.65263 0.481114,-1.0405 1.482727,-2.16376 2.78292,-3.1209 0.547973,-0.40338 1.105934,-0.84131 1.239913,-0.97318 0.435404,-0.42852 1.345621,-0.82276 3.651088,-1.58137 2.643917,-0.86999 2.717223,-0.90784 2.717223,-1.40329 0,-0.54103 -0.749607,-1.96588 -1.176804,-2.23686 -0.557222,-0.35346 -2.552652,-0.80653 -3.552205,-0.80653 -0.4926,0 -1.362321,0.17539 -1.932712,0.38974 -0.570392,0.21436 -1.322385,0.39777 -1.671096,0.40759 -0.524398,0.0148 -0.643939,-0.052 -0.691398,-0.38588 -0.03481,-0.24492 0.112065,-0.56557 0.373386,-0.81517 0.689854,-0.65891 4.167307,-3.1394 5.287382,-3.77154 1.27109,-0.71735 1.4805,-0.69199 4.637706,0.56162 2.572045,1.02126 3.142875,1.44547 3.785897,2.81343 0.386738,0.82275 0.394017,0.94008 0.206433,3.32756 -0.241512,3.07382 -0.250451,8.07187 -0.01703,9.51901 0.222774,1.38112 0.744574,1.90206 1.905201,1.90206 0.436906,0 0.847662,0.0862 0.912792,0.1916 0.06513,0.10539 -0.09755,0.51795 -0.361512,0.91683 -0.686393,1.03721 -4.061063,4.32601 -4.43896,4.32601 -0.17475,0 -1.635028,-0.61269 -1.091984,-0.61269 z m -3.292145,-5.12933 c 0.834311,-0.52115 1.02014,-1.34158 1.003414,-4.4301 -0.0084,-1.5596 -0.06929,-2.97619 -0.13522,-3.14799 -0.167161,-0.43561 -1.043824,-0.26833 -2.567345,0.48991 -2.466907,1.22773 -3.209667,2.33217 -3.047168,4.53094 0.08892,1.20317 0.371406,1.76474 1.198258,2.38207 0.868084,0.64813 2.650059,0.7361 3.548061,0.17517 z m 39.145253,5.39377 c -0.355815,-0.19348 -0.75503,-0.48203 -0.887148,-0.64122 -0.281626,-0.33934 -0.281385,-0.31549 -0.101815,-10.072 l 0.13524,-7.34794 -0.834717,-0.83471 c -1.129709,-1.1297 -1.09175,-1.402 0.297455,-2.13405 0.622693,-0.32814 1.335966,-0.73543 1.585044,-0.90509 0.924489,-0.62971 2.197268,-1.266 2.5324,-1.266 0.619126,0 1.262973,0.7534 1.430373,1.67374 0.28285,1.5551 0.38184,1.5581 2.34912,0.0712 2.232623,-1.68738 3.189873,-2.07603 4.350533,-1.76634 1.75562,0.46844 3.98153,2.41687 4.31069,3.77333 0.0991,0.40832 0.10456,2.00644 0.0136,3.94682 -0.0841,1.79336 -0.1242,4.692 -0.0891,6.44141 0.0559,2.7844 0.10917,3.25842 0.42724,3.80411 0.27023,0.46362 0.51859,0.64658 0.96917,0.71394 0.3332,0.0498 0.69494,0.23254 0.80385,0.40606 0.16778,0.26732 -0.0783,0.59432 -1.61158,2.14132 -0.99527,1.00421 -2.0327,1.94387 -2.30537,2.08815 -0.65567,0.34692 -1.32603,0.0591 -2.65386,-1.13914 l -0.97585,-0.88067 -6.9e-4,-1.26257 c -5.6e-4,-0.69441 0.11291,-3.21898 0.25217,-5.61013 0.36297,-6.23288 0.11809,-7.80925 -1.42338,-9.16269 -1.481763,-1.30099 -2.701003,-1.29299 -3.655033,0.024 -0.49806,0.68754 -0.50777,0.75144 -0.65129,4.2843 -0.16193,3.98597 -0.15609,6.40109 0.0187,7.7339 0.0886,0.67551 0.27698,1.06407 0.79043,1.63033 0.37077,0.4089 0.7255,0.88542 0.78827,1.05895 0.1387,0.38335 -0.66089,1.16182 -2.571552,2.50362 -1.549578,1.08823 -2.317042,1.25775 -3.292572,0.7273 z m 24.196195,-0.0762 c -2.02633,-1.17475 -3.80404,-2.79155 -4.9147,-4.46988 -0.58562,-0.88494 -0.79098,-2.81136 -0.77817,-7.29972 0.008,-2.92245 0.0584,-3.52194 0.35123,-4.20506 0.50202,-1.17118 1.48804,-2.56261 2.21427,-3.12471 0.35038,-0.27118 1.22114,-1.00366 1.93504,-1.62773 0.7139,-0.62407 1.63163,-1.35772 2.03941,-1.63033 0.40777,-0.27262 0.95462,-0.63789 1.2152,-0.81172 0.5824,-0.3885 1.6288,-0.4079 2.49437,-0.0462 0.35768,0.14944 0.7015,0.27178 0.76406,0.27185 0.14099,1.7e-4 0.10223,-1.40132 -0.0741,-2.67789 -0.14212,-1.02915 -0.51763,-1.46761 -1.66897,-1.94874 -0.3238,-0.13531 -0.58872,-0.32325 -0.58872,-0.41764 0,-0.43001 1.52729,-1.41901 4.38003,-2.83629 3.08256,-1.53148 4.04009,-1.81348 4.25511,-1.25315 0.0604,0.15738 -0.057,0.6261 -0.26078,1.04161 -0.64156,1.3079 -0.83918,2.94322 -1.03263,8.54484 -0.2622,7.59232 -0.32197,10.08077 -0.31233,13.00518 0.01,2.92256 0.0472,3.29876 0.40294,4.03362 0.42353,0.8749 0.90768,1.24621 1.41498,1.0852 0.17582,-0.0558 0.47013,0.009 0.654,0.14302 0.32468,0.23739 0.32441,0.26132 -0.009,0.82629 -0.34086,0.57702 -3.29647,3.23346 -4.0409,3.63187 -0.34506,0.18468 -0.50855,0.0922 -1.48957,-0.84285 -0.60608,-0.57766 -1.29547,-1.43173 -1.53198,-1.89792 -0.56995,-1.12343 -0.77376,-1.2202 -1.23419,-0.58595 -0.74327,1.02385 -3.05115,3.51675 -3.25377,3.5146 -0.11327,-0.001 -0.53201,-0.19122 -0.93054,-0.42226 z m 4.18243,-5.71481 c 0.91085,-0.55543 1.01052,-1.26957 0.94629,-6.7823 l -0.0566,-4.85747 -0.63402,-0.53566 c -0.94887,-0.80167 -1.91339,-1.257 -2.91354,-1.37546 -1.9703,-0.23335 -2.44818,1.20487 -2.43121,7.31692 0.006,2.15274 0.0431,2.39928 0.51649,3.42923 0.57183,1.24419 1.48933,2.23545 2.56628,2.7726 0.90974,0.45375 1.30451,0.46007 2.00627,0.0321 z m 22.86708,5.88397 c 0.84444,0 -1.54227,-1.35383 -2.14032,-2.5978 -0.75785,-1.57639 -0.91128,-1.54935 -3.35255,0.59082 -1.67882,1.47175 -2.51132,2.08112 -2.8432,2.08112 -0.46769,0 -2.01598,-0.90382 -2.72971,-1.59348 -1.59203,-1.53834 -1.90895,-2.3645 -1.96542,-5.12345 -0.0328,-1.60161 0.004,-1.80869 0.48248,-2.68706 0.71477,-1.31327 2.6347,-3.1549 4.1834,-4.01279 0.71168,-0.39423 2.24868,-1.03421 3.41556,-1.42218 1.16689,-0.38797 2.19673,-0.78052 2.28855,-0.87234 0.23394,-0.23395 -0.1576,-1.94255 -0.55867,-2.43784 -0.23849,-0.29452 -0.60683,-0.43378 -1.38933,-0.52525 -0.58564,-0.0685 -1.57185,-0.21651 -2.19156,-0.32898 -1.03462,-0.18779 -1.23347,-0.16723 -2.4318,0.25145 -1.4341,0.50105 -1.97059,0.56051 -2.27853,0.25258 -0.3731,-0.37311 0.12751,-0.99639 1.64594,-2.04926 0.81066,-0.5621 2.16681,-1.50671 3.01368,-2.09914 1.75488,-1.22761 2.44834,-1.35553 3.95168,-0.7289 0.4668,0.19458 1.43753,0.52792 2.15719,0.74076 1.62021,0.47917 2.79631,1.34055 3.19672,2.34126 0.35821,0.89527 0.37885,2.65388 0.0905,7.71651 -0.26199,4.60064 -0.14733,5.84951 0.61695,6.71998 0.50182,0.57155 0.63277,0.62887 1.22157,0.53471 0.42242,-0.0676 0.78093,-0.0167 0.99726,0.14152 0.31579,0.23091 0.31856,0.27492 0.0426,0.67651 -0.16235,0.23626 -1.03314,1.20396 -1.93509,2.15046 -0.90194,0.9465 -1.64089,1.77995 -1.6421,1.85212 -0.002,0.13979 -0.97268,0.68471 -1.21596,0.68284 -0.0797,-6.2e-4 -0.93074,-0.25417 -0.62986,-0.25417 z m -3.87441,-5.3558 c 0.16401,-0.21868 0.62836,-0.44359 0.82854,-0.76988 0.33434,-0.54495 0.36018,-0.85864 0.3171,-3.85391 l -0.0469,-3.26067 -0.51391,-0.0588 c -1.02501,-0.11728 -3.97161,1.7322 -4.55406,2.85855 -0.1742,0.33687 -0.27591,1.02778 -0.27591,1.87436 0,1.52028 0.3486,2.243 1.435,2.97513 0.66309,0.44685 2.26863,0.95723 2.81011,0.23526 z m 14.4996,5.00946 c -3.2346,-2.15837 -3.07814,-1.81773 -2.81902,-6.1372 0.58145,-9.69241 0.49624,-11.14856 -0.72037,-12.31049 -0.38167,-0.36452 -0.94196,-0.71724 -1.24507,-0.78382 -1.13527,-0.24934 -0.92113,-0.73339 0.7987,-1.80531 0.72706,-0.45316 1.37269,-0.82393 1.43473,-0.82393 0.062,0 0.45038,-0.24455 0.863,-0.54344 0.5627,-0.40762 0.94921,-0.54345 1.54642,-0.54345 1.03563,0 1.46755,0.43183 2.13596,2.13549 0.61022,1.55537 0.57924,1.56648 2.17224,-0.7788 0.56958,-0.83855 1.1861,-1.57241 1.37005,-1.63079 0.20549,-0.0652 0.94957,0.21114 1.92967,0.7167 1.58922,0.81975 2.81612,1.10171 3.58786,0.82455 0.48979,-0.17591 0.81516,-0.0292 0.81516,0.36755 0,0.8902 -1.51017,3.29985 -3.1477,5.0225 -0.6153,0.64728 -0.84358,0.76987 -1.43352,0.76987 -0.62442,0 -0.82878,-0.12962 -1.85618,-1.17746 -0.63498,-0.6476 -1.27379,-1.17746 -1.41957,-1.17746 -0.57299,0 -0.8874,0.26603 -1.2135,1.0268 -0.30125,0.70278 -0.34372,1.34603 -0.37202,5.63473 -0.0378,5.73164 -0.008,5.86318 1.50311,6.72999 0.53085,0.30442 1.22013,0.55425 1.53173,0.55519 0.719,0.002 1.07141,0.38546 0.80762,0.87837 -0.28986,0.54161 -4.52703,3.65203 -4.97497,3.65203 -0.21599,0 -0.79844,-0.27073 -1.29433,-0.60162 z m -73.089175,0.29744 c -0.149446,-0.052 -1.040223,-0.47346 -1.979501,-0.93673 -2.558074,-1.26166 -4.430694,-3.15993 -4.923809,-4.99123 -0.31134,-1.15622 -0.480498,-4.38104 -0.318625,-6.0741 0.0816,-0.85337 0.19486,-2.16297 0.2517,-2.91021 0.251665,-3.30858 0.502488,-3.63524 4.633906,-6.03486 0.95673,-0.5557 2.131939,-1.3099 2.611581,-1.67602 1.964801,-1.49977 2.667989,-1.43789 4.623493,0.40683 1.786085,1.6849 2.582081,3.55292 2.013459,4.72515 -0.08392,0.17301 -0.339582,0.70135 -0.568133,1.1741 -0.641138,1.32614 -2.281324,2.57507 -5.891199,4.48588 -2.593889,1.37303 -2.82724,1.66029 -2.459156,3.02724 0.267056,0.99179 1.814909,2.42242 3.488828,3.22462 1.659712,0.7954 2.812061,0.83696 4.404773,0.15889 1.739519,-0.74058 1.75873,-0.7423 1.690059,-0.15199 -0.04512,0.38796 -0.35717,0.74125 -1.277205,1.44606 -0.669613,0.51297 -1.839626,1.52365 -2.600031,2.24596 -1.704618,1.61922 -2.820263,2.18619 -3.70014,1.88041 z m -0.444512,-13.52967 c 1.398674,-0.37248 1.709918,-0.60847 2.192374,-1.6623 0.720003,-1.57268 0.392786,-2.92694 -0.897247,-3.71352 -0.859303,-0.52395 -1.633182,-0.46244 -2.16726,0.17228 -0.805503,0.95729 -1.08233,5.4546 -0.335413,5.44913 0.161394,-0.001 0.704791,-0.1117 1.207546,-0.24559 z m 1.229925,-14.04452 c -2.873331,-1.87042 -4.906598,-2.34208 -6.223052,-1.44356 -0.915424,0.6248 -1.131987,0.42515 -0.843453,-0.77757 0.366585,-1.52812 1.644136,-3.49086 2.782532,-4.2749 l 0.991654,-0.68298 1.151055,0.18058 c 1.135431,0.17812 2.772317,0.86819 5.015772,2.11453 1.871428,1.03965 2.730553,0.86405 3.380263,-0.69092 0.274868,-0.65785 0.265235,-0.73497 -0.282037,-2.25772 -0.311641,-0.86713 -0.62602,-1.96575 -0.698621,-2.44137 -0.201056,-1.31707 -0.397586,-1.39057 -1.38774,-0.519 -0.468468,0.41236 -0.919074,0.74974 -1.001349,0.74974 -0.08228,0 -0.562628,0.36683 -1.067438,0.81517 -0.508321,0.45147 -1.096981,0.81376 -1.31937,0.81202 -0.825461,-0.006 -5.045254,-4.01697 -5.519658,-5.24589 -0.358855,-0.9296 -0.431633,-4.91193 -0.174114,-9.52697 l 0.142202,-2.54851 -0.595074,-0.607 c -0.327292,-0.33385 -1.165693,-0.90586 -1.863116,-1.27112 -0.697418,-0.36527 -1.294828,-0.80207 -1.327577,-0.97066 -0.09106,-0.46882 0.832702,-1.906449 1.477728,-2.299749 0.685525,-0.418002 1.553625,-0.441506 3.382242,-0.09157 1.769839,0.338678 1.942112,0.407314 2.848314,1.134799 1.217658,0.97752 1.280023,1.43947 1.081514,8.01108 -0.0762,2.52248 -0.05464,4.31486 0.05689,4.72903 0.392711,1.45843 2.416543,3.43641 3.516057,3.43641 0.310635,0 0.869025,-0.20673 1.240861,-0.4594 0.593479,-0.40328 0.678205,-0.55266 0.693521,-1.22275 0.04745,-2.07386 0.172732,-3.94853 0.329518,-4.92976 0.226832,-1.41961 0.22482,-4.34416 -0.0034,-5.2151 -0.09901,-0.37752 -0.413702,-0.94814 -0.699326,-1.26804 -0.474487,-0.53142 -0.633861,-0.58946 -1.846165,-0.67221 -1.647771,-0.11248 -1.843151,-0.45346 -0.680409,-1.18747 0.419837,-0.26502 1.094646,-0.80021 1.499564,-1.1893 1.271116,-1.221398 2.046666,-1.668874 2.892467,-1.668874 0.999384,0 3.022161,0.987073 3.771327,1.840334 0.622707,0.70922 0.616887,0.51434 0.152397,5.10368 -0.802,7.9241 -0.89371,11.82738 -0.354315,15.08066 0.198104,1.19482 0.189279,1.25204 -0.385176,2.49833 -0.478457,1.03802 -0.899588,1.57346 -2.261921,2.87586 -0.920703,0.8802 -2.29629,1.99766 -3.056859,2.48325 -0.760569,0.48559 -1.848143,1.18627 -2.416824,1.55707 -0.568681,0.3708 -1.118233,0.67649 -1.221225,0.67931 -0.102993,0.003 -0.632847,-0.28495 -1.177462,-0.63946 z m 21.562742,-4.94593 c 0,-0.20131 0.0833,-0.4175 0.18517,-0.48044 0.4022,-0.24858 1.64452,-2.1135 1.98742,-2.98344 0.20959,-0.53173 0.47273,-1.93187 0.623,-3.31487 0.31334,-2.8838 0.50313,-11.14031 0.27441,-11.93781 -0.42311,-1.47528 -2.01674,-2.86516 -3.28517,-2.86516 -0.69852,0 -1.74492,0.65592 -2.52461,1.58254 -0.43957,0.5224 -0.46834,0.69176 -0.58164,3.4235 -0.210346,5.07193 -0.154101,7.12987 0.21717,7.94606 0.41874,0.92052 0.81135,1.24228 1.53329,1.25662 0.86364,0.0171 0.86217,0.61658 -0.003,1.4872 -1.44356,1.45158 -2.886102,2.65949 -3.472296,2.90752 -0.575549,0.24353 -0.649703,0.23013 -1.358608,-0.24542 -0.412409,-0.27665 -0.994386,-0.62796 -1.293279,-0.78068 l -0.543444,-0.27769 -0.0014,-2.98894 c -6.02e-4,-1.64392 0.05902,-6.1681 0.132481,-10.05372 0.07346,-3.88564 0.08532,-7.59464 0.02636,-8.242253 -0.104081,-1.142798 -0.136534,-1.205067 -1.102355,-2.115288 -0.547313,-0.515805 -0.940825,-1.025681 -0.874462,-1.133056 0.345963,-0.559773 2.617572,-1.805502 4.859815,-2.665079 2.391928,-0.916958 3.436158,-1.154095 3.638728,-0.826324 0.11197,0.181167 -0.48126,1.520064 -0.99014,2.234727 -0.3305,0.464154 -0.40945,0.9437 -0.557,3.383364 -0.0945,1.563416 -0.12054,3.270369 -0.0578,3.793239 l 0.11416,0.95067 2.02493,-1.86204 c 3.24884,-2.987511 4.18805,-3.352946 5.82716,-2.267255 2.39225,1.584565 3.72135,3.700175 3.45218,5.495075 -0.0683,0.45509 -0.19358,2.96302 -0.27853,5.57321 -0.2028,6.23109 -0.45241,7.23268 -2.66023,10.67409 -0.81734,1.27402 -2.75213,3.43532 -3.68164,4.11266 -0.24908,0.1815 -0.71781,0.38738 -1.04161,0.45749 -0.51201,0.11088 -0.58872,0.0798 -0.58872,-0.2385 z m -66.568333,-0.0734 c -0.1497,-0.45661 -0.683209,-2.60559 -0.842469,-3.39347 -0.09063,-0.44834 -0.114562,-1.15197 -0.05319,-1.56363 0.07286,-0.48873 0.03759,-0.79419 -0.101624,-0.88023 -0.238815,-0.1476 -0.617624,0.1531 -3.249846,2.57972 -1.7639,1.62612 -1.84312,1.67559 -2.681729,1.67461 -1.470382,-0.002 -2.285645,-0.31722 -6.117433,-2.36741 -1.620405,-0.86699 -4.087223,-2.83749 -5.024449,-4.01353 -2.0467,-2.56821 -2.584084,-4.04869 -2.779355,-7.65703 -0.283608,-5.2407 1.341021,-9.16032 5.522254,-13.323139 1.984887,-1.976146 4.042162,-3.485906 6.738055,-4.944802 2.062806,-1.116297 1.896452,-1.123219 7.533033,0.313332 1.413408,0.360225 2.921467,0.654161 3.351242,0.653181 0.809458,-0.0021 2.350111,-0.615456 3.175655,-1.264828 0.64149,-0.504597 0.902403,-0.455514 0.996779,0.187511 0.101828,0.693795 -0.809906,1.972387 -2.486687,3.487254 -1.291301,1.16661 -3.391538,3.78909 -3.852108,4.809965 -0.408167,0.904716 -0.758837,1.295836 -1.161826,1.295836 -0.491732,0 -0.553007,-0.34285 -0.243585,-1.362939 0.462768,-1.525666 0.39156,-1.850932 -0.492534,-2.249853 -0.423434,-0.191066 -1.585046,-0.527574 -2.581361,-0.7478 -0.996315,-0.220233 -2.219065,-0.497477 -2.717223,-0.6161 -1.435755,-0.341889 -3.183538,-0.340801 -4.041557,0.0027 -0.728939,0.291663 -1.845759,1.343101 -1.845759,1.737702 0,0.106018 -0.118064,0.449626 -0.262365,0.763574 -0.760991,1.655666 -1.316126,4.286456 -1.48422,7.033726 -0.248926,4.06838 1.140397,7.11497 4.5508,9.97927 1.98371,1.66606 4.495143,2.67379 6.641638,2.66498 1.01415,-0.004 2.240028,-0.4465 2.66686,-0.96229 0.519492,-0.62777 0.133795,-7.04994 -0.459,-7.64274 -0.343744,-0.34374 -1.310011,-0.57925 -2.9586,-0.72108 -1.408261,-0.12116 -1.502096,-0.0991 -3.595374,0.84748 -0.782581,0.35386 -1.295627,0.34014 -1.295627,-0.0346 0,-0.604 1.570208,-2.92187 3.034986,-4.48011 l 1.064268,-1.13218 1.165754,0.003 c 0.641164,0.002 2.062436,0.12401 3.158382,0.27125 1.095947,0.14724 2.787418,0.32094 3.758825,0.386 l 1.766195,0.11827 0.02145,0.5615 c 0.0118,0.30883 0.006,0.63999 -0.01285,0.73592 -0.01887,0.0959 -0.06369,3.45342 -0.09961,7.46108 l -0.06531,7.28667 -1.364724,1.29636 c -0.7506,0.71299 -1.650949,1.72757 -2.000777,2.25461 -0.650917,0.98065 -1.144703,1.34933 -1.274984,0.95195 z m 138.792583,-1.76537 c -0.94554,-0.284 -2.20729,-1.2505 -3.11622,-2.38702 -0.49815,-0.6229 -1.24106,-1.51233 -1.65091,-1.97653 -0.40984,-0.4642 -1.08459,-1.4448 -1.49943,-2.17909 -0.41486,-0.73431 -1.32627,-2.27254 -2.02538,-3.41831 -2.20484,-3.61351 -2.23224,-3.64093 -2.78868,-2.7917 -0.26542,0.40508 -0.2991,0.89352 -0.24727,3.58627 0.0507,2.63291 0.1108,3.19472 0.38686,3.61552 0.39705,0.60521 1.33732,1.2039 1.89221,1.20483 0.94407,0.001 0.34018,0.93495 -1.42705,2.20567 -0.46108,0.33154 -1.18658,0.86773 -1.61223,1.19154 -0.42564,0.3238 -0.93168,0.58872 -1.12452,0.58872 -0.55776,0 -2.69662,-1.13652 -2.99622,-1.5921 -0.21889,-0.33286 -0.24522,-0.70799 -0.13344,-1.90205 0.16668,-1.78063 0.23866,-3.50237 0.35756,-8.5522 0.0493,-2.09226 0.14408,-5.9643 0.21071,-8.60454 0.16311,-6.464468 -0.003,-7.067039 -2.07273,-7.512913 -1.33895,-0.288459 -0.82258,-0.986622 1.68786,-2.282064 0.79705,-0.411292 1.82666,-1.017855 2.28802,-1.347907 1.31213,-0.938665 1.83221,-1.151085 3.14838,-1.285927 l 1.22619,-0.125628 -0.13235,0.706912 c -0.0728,0.388808 -0.28022,1.032983 -0.46098,1.431507 -0.89132,1.96515 -1.0831,3.741446 -1.11478,10.32545 -0.0219,4.55834 -0.012,4.84781 0.1643,4.77023 0.0755,-0.0332 1.17809,-1.17721 2.45028,-2.54224 2.10515,-2.25877 2.28114,-2.49895 1.9579,-2.67193 -0.19534,-0.10455 -0.75812,-0.19008 -1.25063,-0.19008 -1.61046,0 -1.64187,-0.61929 -0.10027,-1.976256 l 0.84661,-0.745219 2.28172,0.0884 c 3.34402,0.129551 5.27067,0.51749 5.27067,1.061263 0,0.326262 -1.8838,2.103562 -2.8078,2.649062 -1.3837,0.81689 -2.56496,1.61909 -2.79848,1.90048 -0.12916,0.15561 -0.33987,0.28294 -0.46826,0.28294 -0.25568,0 -1.17139,1.00852 -1.17139,1.29011 0,0.0965 0.39199,0.76275 0.87111,1.48058 0.47911,0.71783 1.50812,2.33638 2.28668,3.59677 2.28349,3.69666 3.61085,5.34072 5.13674,6.36231 1.56181,1.04563 2.92237,1.3259 3.76294,0.77514 0.45305,-0.29685 1.34872,-0.27066 1.34658,0.0394 -0.001,0.1792 -4.66386,4.60423 -5.14323,4.88113 -0.4377,0.25283 -0.72145,0.26264 -1.43108,0.0495 z M 48.344687,121.66893 c -0.199263,-0.11332 -0.95009,-0.68408 -1.668505,-1.26835 -1.52571,-1.24084 -1.604865,-1.46225 -1.431004,-4.00282 0.265923,-3.88585 0.333608,-10.90201 0.113029,-11.71643 -0.251896,-0.93005 -1.257857,-1.99707 -1.882796,-1.99707 -0.491173,0 -1.0946,-0.41054 -0.997679,-0.67877 0.0989,-0.27371 3.384293,-2.757877 3.913468,-2.959069 0.644481,-0.245031 1.549615,-0.202364 1.971195,0.09292 0.203523,0.142559 0.722566,0.957719 1.15343,1.811489 0.430863,0.85376 0.852306,1.55229 0.93654,1.55229 0.279738,0 1.419344,-1.70952 1.63023,-2.4455 0.210146,-0.733402 0.895105,-1.539761 1.307945,-1.539761 0.123872,0 0.556231,0.22417 0.960797,0.498155 2.429346,1.645236 2.488184,1.675626 3.245192,1.675626 1.473869,0 1.437362,0.55392 -0.189524,2.87566 -1.285563,1.83463 -2.029498,2.55987 -2.620659,2.55481 -0.656698,-0.005 -1.904588,-0.60869 -2.234646,-1.07992 -0.774836,-1.10623 -1.563318,-1.06184 -1.949987,0.10977 -0.26457,0.80166 -0.384363,7.86796 -0.157557,9.29394 0.232661,1.46279 1.31261,2.51519 2.791531,2.7203 0.561975,0.0779 0.736949,0.18712 0.779647,0.48646 0.04243,0.29746 -0.325148,0.6921 -1.602886,1.72091 -0.911866,0.73422 -1.98704,1.59987 -2.389273,1.92367 -0.780326,0.62817 -1.10215,0.69944 -1.678488,0.37169 z m 89.940083,-0.032 c 0,-0.0738 -2.9544,-8.91572 -3.27608,-9.80463 -0.10816,-0.29889 -0.46779,-1.39936 -0.79916,-2.44549 -1.70022,-5.36744 -2.25796,-6.42109 -3.73539,-7.05666 -0.48647,-0.20927 -0.88449,-0.48827 -0.88449,-0.62 0,-0.60795 2.07913,-2.841645 2.88229,-3.096555 0.63776,-0.202418 2.65048,0.569228 3.21014,1.230714 0.8519,1.006901 1.61233,2.883351 3.02288,7.459291 0.48521,1.57404 1.82857,5.11694 2.00836,5.29673 0.26305,0.26306 1.23212,-1.03246 1.84855,-2.47125 0.83106,-1.93976 0.89707,-3.06636 0.2717,-4.63696 -0.89113,-2.23809 -1.11228,-2.57195 -2.03708,-3.07529 -0.48477,-0.26384 -0.88139,-0.54923 -0.88139,-0.6342 0,-0.45037 3.87452,-3.445862 4.45706,-3.445862 0.25664,0 1.33457,1.298639 1.65398,1.992622 0.43027,0.9349 1.16668,2.83038 1.33717,3.44182 0.85377,3.06192 1.96015,6.40346 2.59678,7.8429 0.38216,0.86406 0.51692,1.0204 0.76158,0.88349 0.58302,-0.32628 2.1811,-5.42832 2.25474,-7.1985 0.0802,-1.92711 0.0448,-2.0391 -0.81747,-2.58592 -0.43936,-0.27863 -1.27491,-0.61658 -1.85677,-0.751 -1.89696,-0.43823 -1.97265,-0.85628 -0.42859,-2.367147 1.37382,-1.344285 1.87136,-1.459047 3.95557,-0.912405 1.57159,0.41219 2.78988,1.03767 3.33628,1.712872 0.49387,0.61029 0.38031,1.66686 -0.42124,3.91915 -0.40775,1.14576 -0.82423,2.36724 -0.92553,2.71438 -0.10128,0.34714 -0.33807,0.82685 -0.5262,1.06602 -0.18813,0.23918 -0.34206,0.56057 -0.34206,0.71421 0,0.15363 -1.05685,2.40473 -2.34855,5.00243 -1.2917,2.59771 -2.5568,5.28729 -2.81135,5.97685 -0.53557,1.45089 -0.73308,1.73519 -1.20541,1.73519 -0.36902,0 -0.69121,-0.60275 -1.0651,-1.99263 -0.1206,-0.44834 -0.40723,-1.26351 -0.63693,-1.81148 -0.2297,-0.54797 -0.75211,-2.01527 -1.16091,-3.26067 -0.96474,-2.93908 -1.09855,-3.26066 -1.35684,-3.26066 -0.30769,0 -0.85343,0.80003 -1.54465,2.26435 -0.32921,0.69742 -0.95042,2.00169 -1.38046,2.89837 -0.43004,0.89668 -1.06827,2.31336 -1.4183,3.14818 -0.66316,1.58164 -1.08083,2.19569 -1.4935,2.19569 -0.134,0 -0.24364,-0.0306 -0.24364,-0.068 z m -21.39812,-0.78283 c -0.63516,-0.34924 -1.348,-0.81017 -1.5841,-1.02428 -1.18597,-1.07556 -1.83509,-2.88849 -1.83509,-5.12523 0,-2.13468 0.4511,-3.24743 1.89203,-4.66719 1.97677,-1.94773 3.23904,-2.64042 7.07481,-3.88242 0.49815,-0.1613 0.96277,-0.37461 1.03248,-0.47401 0.24776,-0.3533 -0.0736,-1.81274 -0.49618,-2.25326 -0.76295,-0.79539 -4.4689,-1.03703 -5.90568,-0.38507 -1.46155,0.6632 -2.2704,0.37955 -1.74998,-0.61369 0.23355,-0.44575 3.22633,-2.653551 5.1152,-3.77353 1.04878,-0.621865 1.96872,-0.620201 3.45334,0.0062 0.49816,0.210203 1.50483,0.605974 2.23706,0.879487 0.9243,0.345257 1.45883,0.666373 1.74839,1.050343 0.8464,1.12238 0.91568,1.5753 0.80508,5.26291 -0.21653,7.21931 -0.0567,9.09786 0.85143,10.00598 0.38416,0.38416 0.57547,0.44037 1.24289,0.36514 0.84626,-0.0954 1.17625,0.0861 1.17625,0.64702 0,0.61379 -4.57795,4.65118 -5.27393,4.65118 -0.66937,0 -2.87531,-2.51777 -2.87707,-3.28378 -3.7e-4,-0.16215 -0.12102,-0.3947 -0.26811,-0.51678 -0.30474,-0.25291 -0.82348,0.10955 -3.16583,2.21205 -1.84667,1.65756 -2.03765,1.70809 -3.47299,0.91887 z m 6.25613,-4.95986 c 0.46812,-0.55633 0.46897,-0.56352 0.46651,-3.93997 -0.003,-3.52085 -0.0734,-4.1978 -0.43939,-4.1978 -0.5093,0 -3.49868,1.63776 -4.01151,2.19774 -0.64557,0.70494 -0.98108,1.7265 -0.98108,2.9872 0,2.38407 1.06564,3.48838 3.38043,3.50308 1.02788,0.007 1.15313,-0.037 1.58504,-0.55025 z m -58.489179,4.54544 c -0.975379,-0.49659 -2.153693,-1.25062 -2.618477,-1.67562 -0.464784,-0.42499 -1.085979,-0.99334 -1.380434,-1.26298 -1.508048,-1.38098 -1.893983,-2.32653 -1.893983,-4.64034 0,-2.48746 0.308905,-6.21205 0.643846,-7.7631 l 0.280775,-1.30021 1.73242,-1.32644 c 0.952831,-0.72953 2.232471,-1.71355 2.843644,-2.1867 2.734303,-2.116816 3.249952,-2.312867 4.672779,-1.776611 0.564015,0.212571 1.309908,0.607528 1.657542,0.877672 0.347633,0.270144 0.83468,0.638259 1.082326,0.818029 0.689987,0.50086 1.270972,2.28726 1.183721,3.63967 -0.129681,2.01006 -1.329052,3.15328 -5.35599,5.10523 -1.319752,0.63971 -2.448403,1.16312 -2.508111,1.16312 -0.05971,0 -0.345315,0.16858 -0.634681,0.37463 -1.41768,1.00948 0.353747,3.93495 3.248484,5.3648 1.49959,0.74073 2.690701,0.6873 4.25875,-0.19104 0.885266,-0.49588 1.296095,-0.63896 1.435215,-0.49984 0.307267,0.30727 -0.119967,1.03541 -0.902414,1.53798 -0.823681,0.52905 -1.917513,1.67111 -2.850092,2.97573 -0.73077,1.02231 -1.738237,1.66893 -2.600286,1.66893 -0.28689,0 -1.319655,-0.40631 -2.295034,-0.90291 z m 1.318317,-12.59802 c 0.429248,-0.14951 0.983652,-0.40498 1.232009,-0.56771 0.996205,-0.65274 1.331443,-2.19846 0.764843,-3.52654 -0.445265,-1.04368 -1.170999,-1.47909 -2.324432,-1.39455 -0.778567,0.057 -0.83528,0.10041 -1.263122,0.96548 -0.371754,0.75166 -0.459904,1.237 -0.518197,2.85308 l -0.07024,1.94734 0.699345,-0.003 c 0.38464,-10e-4 1.050548,-0.12496 1.479796,-0.27447 z M 85.842362,89.651184 C 83.875815,88.375581 82.844178,87.55976 82.279687,86.833819 81.8587,86.292431 81.85731,86.272967 81.912425,81.68798 c 0.04224,-3.515615 0.115542,-4.718845 0.31034,-5.095547 0.323218,-0.625034 3.007448,-3.129057 4.038195,-3.767092 0.429491,-0.265857 1.203904,-0.75898 1.720907,-1.095829 1.937162,-1.262137 2.374615,-1.298441 4.018354,-0.333479 2.370373,1.391535 4.088404,3.581743 4.365442,5.565211 0.181393,1.298708 0.104109,5.3392 -0.118308,6.184724 -0.209059,0.794783 -1.490822,2.487963 -2.561642,3.38388 -0.428217,0.358271 -1.287089,1.119775 -1.908607,1.69223 -1.579902,1.455191 -3.181611,2.508504 -3.796314,2.496529 -0.300029,-0.0062 -1.17573,-0.442958 -2.13843,-1.067423 z m 6.104935,-3.393816 c 0.336312,-0.304358 0.349204,-0.517785 0.260356,-4.310012 -0.05142,-2.194388 -0.187721,-4.309577 -0.302893,-4.70042 -0.474014,-1.608573 -2.489733,-3.184063 -4.073764,-3.184063 -1.544991,0 -1.953025,1.25789 -1.814163,5.592649 0.04909,1.531669 0.141285,3.062403 0.204924,3.401632 0.180016,0.959557 1.663539,2.346145 3.696436,3.454909 0.556549,0.303547 1.550051,0.178842 2.029104,-0.254695 z m 63.624043,4.230654 c -0.12265,-0.31961 0.21158,-1.169067 0.72472,-1.841917 1.1423,-1.497823 1.42386,-2.363283 1.5538,-4.775983 0.0678,-1.25928 0.0749,-3.250497 0.0158,-4.424928 -0.11316,-2.247959 -0.20808,-2.475215 -1.03634,-2.481176 -0.21197,-0.0015 -0.48236,-0.119595 -0.60085,-0.262375 -0.26884,-0.323923 0.18278,-0.822208 1.22889,-1.355894 0.69783,-0.356006 0.71184,-0.383006 0.78356,-1.50931 0.10737,-1.686158 0.70593,-2.707895 2.34409,-4.00135 2.64543,-2.088777 2.58262,-2.063008 4.88315,-2.003346 1.11219,0.02884 2.06474,0.09501 2.11676,0.147033 0.26007,0.260071 -0.48247,1.287169 -1.46394,2.024953 -1.16052,0.872376 -1.40551,0.913145 -2.57941,0.429238 -0.8471,-0.349191 -1.49867,-0.10371 -1.83009,0.68949 -0.37749,0.903441 -0.53377,3.296822 -0.24992,3.827208 0.20343,0.3801 0.31338,0.402838 1.60872,0.332691 0.7647,-0.04141 1.57378,-0.138452 1.79795,-0.215645 0.62352,-0.214711 0.49788,0.11469 -0.43674,1.144952 -0.82842,0.913202 -0.86382,0.930729 -1.87988,0.930729 -0.61037,0 -1.11312,0.09346 -1.22447,0.227638 -0.11194,0.134874 -0.21355,1.666634 -0.24932,3.758825 l -0.0604,3.531186 -0.79689,1.177464 c -0.43829,0.647604 -1.25313,1.703675 -1.81077,2.346824 -2.18364,2.518504 -2.62008,2.872721 -2.83844,2.303693 z m -96.180996,-0.12892 c -0.06399,-0.103527 -0.302432,-0.735284 -0.529881,-1.403897 -0.732461,-2.153154 -1.729588,-4.798638 -2.404117,-6.378381 -0.730339,-1.710449 -2.160225,-5.327559 -2.946081,-7.452554 -1.100505,-2.975819 -3.852221,-6.641712 -5.548757,-7.392172 -0.44285,-0.195893 -0.904625,-0.325305 -1.026168,-0.287581 -0.121543,0.03772 -0.712179,0.11772 -1.312526,0.17777 -0.797038,0.07972 -1.186189,0.03997 -1.442348,-0.147336 -0.518713,-0.379292 -0.197761,-0.663772 2.147993,-1.903899 2.754415,-1.456173 4.182945,-1.905619 5.675952,-1.785775 1.380918,0.110847 1.668489,0.329629 2.984399,2.270506 1.819011,2.682918 2.250732,3.676548 4.895717,11.267744 1.077172,3.091522 1.367065,3.724275 1.946502,4.248659 0.389275,0.352289 0.391228,0.351863 0.831633,-0.181576 0.242793,-0.294081 1.060303,-1.748661 1.81669,-3.232398 0.756387,-1.483737 1.468779,-2.847468 1.583093,-3.030514 0.163816,-0.262312 0.141307,-0.445448 -0.106261,-0.864546 -0.172757,-0.292455 -0.476545,-1.048157 -0.675083,-1.679339 -0.198539,-0.631181 -0.617329,-1.595944 -0.930647,-2.143917 -0.313317,-0.547974 -0.718632,-1.273865 -0.9007,-1.613092 -0.661492,-1.232487 -1.193848,-1.580179 -2.683995,-1.752965 -0.242248,-0.02809 -0.666162,0.06565 -0.942032,0.208308 -1.000425,0.517339 -1.686047,0.179295 -1.258112,-0.620308 0.354311,-0.662037 3.076187,-2.384052 4.239309,-2.68203 1.336552,-0.342409 4.124595,-0.281538 4.249366,0.09277 0.04462,0.13386 0.305486,0.500412 0.579701,0.814559 0.608241,0.696815 1.315978,2.072639 1.691583,3.2884 0.153904,0.498158 0.577194,1.720908 0.940645,2.717223 0.36345,0.996315 0.735187,2.178307 0.826081,2.626649 0.09089,0.448342 0.244853,0.9782 0.342131,1.177463 0.09728,0.199263 0.415878,0.976033 0.707999,1.726154 0.946325,2.430019 2.67368,5.01902 3.078434,4.614032 0.267399,-0.267555 1.970977,-4.53779 2.312565,-5.796741 0.370877,-1.366904 0.352652,-3.251666 -0.04731,-4.891001 -0.268508,-1.100589 -0.440541,-1.405584 -1.302726,-2.309639 -0.54745,-0.574035 -1.152322,-1.041602 -1.347476,-1.041602 -0.194757,0 -0.87583,0.248995 -1.513496,0.553324 -1.827615,0.872239 -2.017015,0.417108 -0.575176,-1.382155 1.039638,-1.297355 2.587491,-2.560055 3.436771,-2.803624 0.832074,-0.238638 2.838708,0.08484 4.526306,0.729651 2.089819,0.798499 2.240018,0.974791 2.206888,2.590233 -0.02472,1.204615 -0.136431,1.919134 -0.643698,4.116683 -0.410985,1.78042 -5.020867,11.246241 -6.748812,13.857835 -0.329599,0.498158 -1.024394,1.720908 -1.543992,2.717222 -0.963632,1.847764 -1.493092,2.502054 -1.948435,2.407825 -0.155266,-0.03211 -0.713584,-1.403996 -1.422269,-3.494714 -1.136221,-3.352006 -3.00627,-7.462995 -3.480424,-7.65113 -0.440457,-0.174765 -1.105657,0.721218 -2.235545,3.011141 -0.620121,1.256784 -1.386542,2.692647 -1.703159,3.190804 -0.316618,0.498158 -0.987899,1.739682 -1.491736,2.758944 -1.334697,2.700088 -1.91594,3.39466 -2.30881,2.758982 z m 42.707116,-0.192436 c -0.70141,-0.261879 -2.559395,-1.600234 -2.771343,-1.996272 -0.149461,-0.279265 -0.142525,-0.782015 0.02677,-1.943539 0.12562,-0.861755 0.234774,-3.360194 0.242559,-5.552087 0.01273,-3.579179 -0.02225,-4.07109 -0.342861,-4.827593 -0.298667,-0.704687 -0.513279,-0.918977 -1.313325,-1.311356 -0.550866,-0.270172 -0.956319,-0.589958 -0.956319,-0.754267 0,-0.338887 0.631122,-0.950145 1.992632,-1.929926 0.93439,-0.672415 1.061177,-0.712506 2.039927,-0.645065 0.88384,0.0609 1.1377,0.163094 1.6581,0.667486 0.33796,0.327565 0.75426,0.961585 0.9251,1.408932 l 0.31062,0.813358 0.76919,-0.754896 c 0.43236,-0.424328 0.8614,-1.062709 0.97978,-1.457832 0.42971,-1.434225 1.46015,-1.708351 2.44083,-0.649329 0.83925,0.90628 1.90186,1.560172 2.5405,1.563316 0.93118,0.0046 1.10177,0.212276 0.74346,0.905168 -0.45614,0.882085 -3.22543,3.620763 -3.66122,3.620763 -0.20227,0 -0.87023,-0.448342 -1.48435,-0.996315 -1.68853,-1.506643 -2.00727,-1.359545 -2.35515,1.086889 -0.23144,1.627602 -0.11,6.454786 0.17634,7.00963 0.49747,0.96391 1.56518,1.776057 2.33495,1.776057 0.27212,0 0.37129,0.117221 0.37129,0.438863 0,0.313229 -0.29818,0.686451 -1.0416,1.30373 -0.57288,0.475676 -1.32691,1.129257 -1.67562,1.452407 -0.78299,0.725588 -1.40982,0.973673 -1.95029,0.771878 z m 13.07947,-0.548982 c -1.9502,-1.161662 -2.12186,-1.362734 -1.99003,-2.331007 0.16003,-1.175347 0.43164,-9.534933 0.46791,-14.401281 0.0324,-4.357246 -0.0384,-4.87514 -0.77473,-5.661195 -0.32633,-0.348353 -0.35762,-0.507013 -0.21437,-1.086888 0.15762,-0.638063 0.28988,-0.741792 2.1941,-1.7208 1.50828,-0.775446 2.24931,-1.053334 2.89837,-1.086889 0.77496,-0.04007 0.87827,-0.0011 0.92828,0.350241 0.031,0.217427 -0.0875,0.665769 -0.26333,0.996315 -0.28203,0.53032 -0.32943,1.325253 -0.40304,6.760031 -0.16728,12.350198 -0.15911,12.784683 0.25362,13.495539 0.22736,0.391583 0.71216,0.811752 1.26786,1.098829 0.49485,0.255646 0.92693,0.60602 0.96017,0.778608 0.0364,0.189332 -0.32273,0.69682 -0.90557,1.279454 -0.53129,0.531112 -1.22396,1.260836 -1.53926,1.621608 -0.75985,0.869428 -1.2938,0.852264 -2.87998,-0.09257 z M 125.51381,88.842 c -3.43931,-2.73164 -3.58635,-3.010171 -3.68097,-6.972863 -0.0577,-2.41672 -0.0119,-3.195206 0.24512,-4.166409 0.29948,-1.131633 0.40753,-1.283026 2.05712,-2.882263 1.61959,-1.570163 2.05989,-1.936835 3.86621,-3.219653 0.94699,-0.672536 2.10157,-0.777972 2.96174,-0.270465 0.3657,0.21577 0.6927,0.364519 0.72667,0.330554 -0.48104,-1.866596 2.35753,-3.032182 0.63317,-4.090548 -2.45327,-1.157204 -4.74895,-2.903442 -5.783,-2.903442 -1.41889,0 -5.98516,1.239191 -5.41248,0.217894 0.64625,-1.152493 3.30528,-2.42404 5.09788,-2.437798 1.0282,-0.0079 1.30406,0.08502 3.27966,1.104651 1.18637,0.612296 2.24624,1.187298 2.35525,1.277781 0.10904,0.09048 0.68211,0.279259 1.27349,0.419499 0.59138,0.140241 1.5585,0.397383 2.14913,0.571426 1.40587,0.414275 2.8717,0.291954 3.84207,-0.320613 0.39276,-0.247939 1.13281,-0.908927 1.64456,-1.468864 0.51175,-0.559937 0.97722,-1.018066 1.03437,-1.018066 0.2626,0 0.0629,1.423623 -0.27813,1.983082 -0.20938,0.343458 -1.52924,1.763511 -2.93302,3.155673 l -2.55232,2.531203 0.0219,6.479372 c 0.0202,5.957931 0.0498,6.542223 0.3682,7.260347 0.43982,0.992098 0.79456,1.27949 1.73411,1.404898 0.63895,0.08529 0.76234,0.170452 0.80751,0.557334 0.0401,0.343399 -0.16209,0.669348 -0.81516,1.314164 -1.23591,1.220271 -2.74089,2.305161 -3.19632,2.304093 -0.66135,-0.0014 -2.16006,-1.275064 -2.61195,-2.219488 -0.29738,-0.621519 -0.51629,-0.859119 -0.79151,-0.859119 -0.23479,0 -0.97525,0.589484 -1.93412,1.539759 -1.97286,1.955192 -2.10764,1.967584 -4.10922,0.377861 z m 5.9517,-4.136685 c 0.43869,-0.400109 0.44844,-0.470942 0.5322,-3.862524 0.0631,-2.557721 0.024,-3.633246 -0.15074,-4.141543 -0.43789,-1.273753 -1.7951,-2.321114 -3.32474,-2.565713 -1.0116,-0.161762 -1.53542,0.214062 -1.92245,1.3793 -0.38545,1.160461 -0.6002,4.220535 -0.41298,5.884526 0.13761,1.222975 0.17549,1.298788 1.0661,2.133365 0.50789,0.475931 1.22105,1.022565 1.58481,1.214744 0.92869,0.490652 2.06359,0.472446 2.62779,-0.04215 z m 16.52581,1.857179 c -1.96057,-1.557994 -2.24547,-2.188155 -2.30157,-5.090786 -0.0477,-2.470134 0.16799,-3.593699 0.80914,-4.214292 0.7474,-0.723434 3.28677,-2.985898 3.80504,-3.390115 0.50594,-0.394607 0.53486,-0.396657 1.44918,-0.10271 1.52381,0.489895 2.54162,1.237635 3.03345,2.22853 0.40025,0.806409 0.44017,1.13012 0.49242,3.99383 l 0.0569,3.116294 -0.78146,0.853331 c -0.4298,0.469333 -1.51198,1.492122 -2.40484,2.272865 -2.07809,1.817139 -2.2712,1.832607 -4.15823,0.333053 z m 4.25377,-2.180562 c 0.32234,-0.172513 0.35006,-0.400866 0.3464,-2.853084 -0.003,-2.203267 -0.062,-2.79123 -0.33839,-3.390155 -0.62392,-1.351821 -1.69906,-2.00943 -2.79194,-1.707672 -0.78239,0.21603 -0.8453,0.432795 -0.84847,2.923627 -0.002,1.502458 0.0794,2.159468 0.36034,2.910268 0.6513,1.740752 2.15601,2.714302 3.27206,2.117016 z m -119.932017,2.24786 c 0,-0.06239 0.398767,-0.85718 0.886148,-1.766195 1.05697,-1.971352 1.372851,-3.637871 1.261072,-6.653146 -0.06582,-1.77559 -0.110063,-1.971812 -0.584934,-2.5944 -0.28255,-0.370441 -0.63802,-0.721226 -0.789935,-0.779521 -0.341353,-0.13099 -1.461745,0.452416 -1.690813,0.880432 -0.242531,0.453175 -0.422173,4.727888 -0.26788,6.374426 0.07503,0.800674 0.240136,1.505981 0.386891,1.652736 0.353479,0.353479 0.31986,0.520049 -0.15299,0.758023 -0.223394,0.112428 -1.00579,0.507313 -1.738657,0.877521 -0.91811,0.463783 -1.390775,0.614817 -1.51992,0.485673 -0.129145,-0.129145 -0.12213,-1.41604 0.02256,-4.138189 0.281663,-5.299213 0.384244,-10.269984 0.234805,-11.37783 -0.110393,-0.818381 -0.170344,-0.911281 -0.621564,-0.963179 -0.440792,-0.0507 -0.541579,0.041 -0.858987,0.781477 -0.209417,0.48855 -0.440117,0.789153 -0.552388,0.719766 -0.348426,-0.215339 -3.246001,-0.09268 -3.845585,0.162795 -1.341157,0.571442 -1.940307,1.809785 -2.077146,4.293103 -0.134827,2.446807 0.114511,3.345756 1.319523,4.757332 1.095724,1.283554 2.348993,2.250059 3.116774,2.403615 0.39727,0.07945 0.657794,-0.0083 1.080735,-0.364229 0.306503,-0.257906 0.647407,-0.468919 0.757564,-0.468919 0.412896,0 0.168937,0.542554 -0.876977,1.950363 -1.101212,1.48224 -2.002199,2.216045 -2.720927,2.216045 -1.202926,0 -4.430075,-2.884969 -5.354434,-4.786695 -0.242299,-0.498493 -2.336516,-5.127824 1.426965,-9.025845 1.071304,-1.109601 1.148792,-1.239732 0.83744,-1.406362 -1.09133,-0.584063 -2.812967,-0.310981 -4.066304,0.644986 -1.181839,0.901431 -1.322752,0.125723 -0.33888,-1.86548 0.569794,-1.153175 0.715384,-1.325362 1.041602,-1.231901 1.581415,0.453076 10.972598,0.192902 12.787875,-0.354276 0.547973,-0.165175 1.267347,-0.382585 1.598608,-0.483133 0.331262,-0.100548 0.63899,-0.146119 0.683842,-0.101267 0.04485,0.04485 -0.05466,1.232843 -0.221143,2.639982 -0.205979,1.740996 -0.250837,2.78651 -0.140397,3.272269 l 0.162294,0.713834 1.395624,-0.64168 c 1.580482,-0.726673 1.845014,-0.713644 3.01643,0.148577 1.275747,0.939012 1.492664,1.673592 1.374424,4.654416 -0.10625,2.678528 -0.489217,4.418912 -1.268599,5.765109 -0.596374,1.030094 -2.73357,2.963207 -3.27604,2.963207 -0.23467,0 -0.426672,-0.05105 -0.426672,-0.11344 z m 9.420321,-1.356124 c -1.159828,-0.840176 -2.370241,-2.150361 -2.742505,-2.968567 -0.51128,-1.123747 -0.352084,-5.529933 0.241986,-6.697624 0.181179,-0.356125 1.551681,-1.725766 1.726849,-1.725766 0.0478,0 0.383939,-0.226409 0.746986,-0.503131 1.224653,-0.933455 1.899937,-1.14478 2.969359,-0.929237 2.198734,0.44316 2.285629,0.485735 2.472749,1.211567 0.610846,2.369462 -1.028724,4.498609 -3.945974,5.124247 -1.105207,0.237024 -1.365847,0.517004 -1.217488,1.307827 0.114413,0.609874 1.149225,1.747864 2.155756,2.370699 0.632952,0.391668 2.202749,0.600653 2.378291,0.316621 0.152256,-0.246355 0.828969,-0.272831 0.828969,-0.03243 0,0.378572 -0.902979,1.118974 -2.534871,2.078481 -0.945837,0.556127 -1.850669,1.011139 -2.010738,1.011139 -0.160068,0 -0.641285,-0.25372 -1.069369,-0.563823 z m 1.810866,-7.925056 c 0.931262,-0.684821 0.566354,-2.487654 -0.527256,-2.604912 -0.319963,-0.03431 -0.522721,0.09843 -0.758589,0.496623 -0.323585,0.546276 -0.583367,2.327388 -0.370504,2.54025 0.184463,0.184463 1.166295,-0.07159 1.656349,-0.431961 z"
       id="path1"
       sodipodi:nodetypes="cssssssssscssssssssssscssscsssssccsscsssssssssssscssssscssssssssssssscsssssssssssssscssssscsscssssscssssssssscccsssssssscccscsssssssssssscscssccssssccccscsssssccsssssscsssscsssssssscscssscsssssscssssssssssssssssssssssssssccssscsssssssssssssssscsssscscssscsssssssscsscsssssssssscscsssssssssssscccccsssssssccsssccscssssscccsscsssscccsssscsssssscssssssssscsssscssssssccsscscscssccsssssssscssssssssssscsssssssscsssssssssscsssssssssssssssssscssscsssscscssssssssssssssssssssssssssssssssssssccccsssscssssssssssssssccscssscsssssscsssssssssssssssscsscssccccssssssssssscssssscsssssscssssssssssssssssscsssssssssssssssssssssssssssssssssssssssssssssssssssssssscsssssssssscsssssssssssssccsscssssccssscsssscssssscssssssssssssscccssscsssccscssssssssscssssccsssssccsccssssssssssssssssssssscsssssssssssssscssssssssssssssssssssssssssss" /></g></svg>
