<?xml version="1.0" encoding="utf-8"?>
<!-- Uploaded to: SVG Repo, www.svgrepo.com, Generator: SVG Repo Mixer Tools -->
<svg fill="#000000" width="800px" height="800px" viewBox="0 0 32 32" version="1.1" xmlns="http://www.w3.org/2000/svg">
<title>cloud-moon</title>
<path d="M31.14 16.549c-0.011-0.032-0.006-0.066-0.019-0.098-0.006-0.016-0.020-0.025-0.027-0.040-0.011-0.021-0.027-0.039-0.040-0.059-0.211-0.4-0.624-0.668-1.1-0.668-0.168 0-0.328 0.033-0.474 0.094l0.008-0.003c-0.754 0.319-1.63 0.504-2.55 0.504-1.080 0-2.101-0.256-3.004-0.71l0.039 0.018c-0.169-0.265-0.353-0.495-0.559-0.704l0.001 0.001c-0.476-0.471-1.051-0.843-1.691-1.080l-0.033-0.011c-0.954-1.143-1.533-2.628-1.533-4.248 0-0.932 0.192-1.819 0.538-2.624l-0.017 0.043c0.73-1.71 2.087-3.035 3.774-3.706l0.046-0.016c0.436-0.202 0.733-0.635 0.733-1.138 0-0.625-0.459-1.143-1.058-1.235l-0.007-0.001c-0.47-0.074-1.013-0.117-1.565-0.117-5.828 0-10.553 4.725-10.553 10.553 0 0.207 0.006 0.413 0.018 0.617l-0.001-0.028c-1.644 0.127-3.146 0.633-4.452 1.429l0.044-0.025c-2.086 1.023-3.496 3.131-3.496 5.569 0 0.456 0.049 0.901 0.143 1.328l-0.008-0.041c-2.112 0.967-3.552 3.062-3.552 5.494 0 0.098 0.002 0.196 0.007 0.294l-0.001-0.014c-0.001 0.037-0.001 0.080-0.001 0.124 0 1.297 0.417 2.496 1.124 3.472l-0.012-0.017c0.818 1.066 2.093 1.747 3.527 1.747 0.034 0 0.068-0 0.102-0.001l-0.005 0 18.907-0.012c1.737-0.212 3.198-1.233 4.012-2.669l0.014-0.026c0.531-0.985 0.842-2.156 0.842-3.399 0-0.395-0.031-0.782-0.092-1.16l0.006 0.042c-0.184-1.326-0.664-2.513-1.371-3.53l0.017 0.026c1.255-0.717 2.31-1.638 3.154-2.73l0.018-0.024c0.153-0.203 0.246-0.46 0.246-0.738 0-0.174-0.036-0.339-0.101-0.489l0.003 0.008zM19.51 3.867c0.047-0.021 0.096-0.039 0.145-0.059-0.503 0.634-0.935 1.359-1.264 2.137l-0.023 0.061c-0.448 1.045-0.708 2.261-0.708 3.537s0.26 2.492 0.731 3.597l-0.023-0.060c0.087 0.21 0.208 0.4 0.309 0.602-0.279 0.087-0.517 0.186-0.744 0.305l0.024-0.012c-0.882-0.937-2.032-1.612-3.327-1.902l-0.044-0.008c-0.022-0.223-0.034-0.482-0.034-0.745 0-3.336 2.021-6.2 4.905-7.434l0.053-0.020zM26.238 27.318c-0.409 0.755-1.138 1.291-2 1.43l-0.016 0.002h-18.737c-0.031 0.002-0.068 0.003-0.104 0.003-0.623 0-1.176-0.297-1.526-0.758l-0.003-0.005c-0.378-0.543-0.604-1.216-0.604-1.942 0-0.043 0.001-0.086 0.002-0.129l-0 0.006c0-1.439 0.746-3.578 2.803-3.578 0.69-0 1.25-0.56 1.25-1.25 0-0.24-0.067-0.464-0.184-0.654l0.003 0.005c-1.606-2.648 0.995-4.509 1.831-5.016 1.095-0.665 2.415-1.068 3.827-1.090l0.006-0c0.067-0.004 0.146-0.006 0.225-0.006 1.519 0 2.853 0.796 3.607 1.993l0.010 0.018c0.197 0.321 0.526 0.543 0.91 0.591l0.006 0.001c0.049 0.007 0.105 0.011 0.163 0.011 0.34 0 0.647-0.139 0.869-0.363l0-0c0.388-0.379 0.919-0.613 1.504-0.613 0.613 0 1.165 0.256 1.557 0.667l0.001 0.001c0.253 0.202 0.414 0.511 0.414 0.857 0 0.365-0.179 0.688-0.453 0.887l-0.003 0.002c-0.228 0.226-0.369 0.54-0.369 0.886 0 0.201 0.048 0.392 0.133 0.56l-0.003-0.007c0.212 0.416 0.637 0.696 1.128 0.696 0.058 0 0.114-0.004 0.17-0.011l-0.006 0.001c2.385-0.324 3.768 1.77 4.051 3.852 0.040 0.233 0.062 0.501 0.062 0.774 0 0.795-0.192 1.545-0.532 2.206l0.013-0.027z"></path>
</svg>